<svg width="699" height="684" viewBox="0 0 699 684" fill="none" xmlns="http://www.w3.org/2000/svg">
<path d="M611.29 278.611C598.79 278.611 586.29 281.111 573.79 288.611V278.611C578.79 273.611 583.79 271.111 588.79 266.111C613.79 241.111 623.79 208.611 623.79 173.611C621.29 131.111 596.29 93.6111 556.29 71.1111C528.79 53.6111 503.79 51.1111 473.79 56.1111C468.79 51.1111 463.79 46.1111 456.29 41.1111C451.29 38.6111 448.79 33.6111 443.79 31.1111L438.79 28.6111C433.79 26.1111 431.29 23.6111 426.29 21.1111C423.79 21.1111 421.29 18.6111 421.29 18.6111C416.29 16.1111 413.79 16.1111 408.79 13.6111L403.79 11.1111C398.79 8.61111 396.29 8.61111 391.29 6.11111C388.79 6.11111 388.79 6.11111 386.29 3.61111C381.29 3.61111 378.79 1.11111 371.29 1.11111H366.29C353.79 -1.38889 338.79 1.11111 326.29 1.11111C323.79 1.11111 323.79 1.11111 318.79 1.11111C313.79 1.11111 308.79 3.61111 301.29 3.61111H296.29C286.29 13.6111 273.79 21.1111 261.29 28.6111C261.29 28.6111 258.79 28.6111 258.79 31.1111C243.79 41.1111 228.79 53.6111 216.29 66.1111C191.29 56.1111 166.29 51.1111 138.79 56.1111C81.29 63.6111 33.79 111.111 26.29 171.111C18.79 221.111 36.29 268.611 73.79 298.611V398.611C73.79 441.111 58.79 481.111 31.29 508.611C3.79001 536.111 -6.20999 573.611 3.79001 613.611C16.29 653.611 56.29 683.611 103.79 683.611C131.29 683.611 153.79 673.611 171.29 656.111C193.79 673.611 221.29 683.611 248.79 683.611H448.79C511.29 683.611 563.79 636.111 571.29 573.611C583.79 578.611 596.29 583.611 611.29 583.611C658.79 583.611 698.79 543.611 698.79 496.111V371.111C698.79 318.611 658.79 278.611 611.29 278.611ZM298.79 553.611C298.79 568.611 288.79 578.611 273.79 578.611C258.79 578.611 248.79 568.611 248.79 553.611V403.611C248.79 388.611 258.79 378.611 273.79 378.611C288.79 378.611 298.79 388.611 298.79 403.611V553.611ZM448.79 553.611C448.79 568.611 438.79 578.611 423.79 578.611C408.79 578.611 398.79 568.611 398.79 553.611V403.611C398.79 388.611 408.79 378.611 423.79 378.611C438.79 378.611 448.79 388.611 448.79 403.611V553.611ZM553.79 231.111C538.79 246.111 518.79 253.611 498.79 253.611C491.29 253.611 483.79 251.111 473.79 248.611C463.79 246.111 453.79 248.611 446.29 256.111C441.29 263.611 433.79 268.611 426.29 276.111C423.79 278.611 421.29 281.111 416.29 283.611L413.79 286.111C411.29 288.611 408.79 288.611 406.29 291.111L401.29 293.611C398.79 293.611 396.29 296.111 393.79 296.111L388.79 298.611C386.29 298.611 383.79 301.111 378.79 301.111H376.29C373.79 301.111 371.29 301.111 366.29 303.611H361.29C351.29 303.611 341.29 303.611 331.29 303.611H326.29C316.29 301.111 303.79 298.611 293.79 293.611L291.29 291.111C286.29 288.611 281.29 286.111 276.29 283.611C251.29 266.111 218.79 263.611 188.79 273.611C163.79 283.611 146.29 306.111 146.29 331.111V583.611C146.29 608.611 126.29 628.611 98.79 628.611C76.29 628.611 53.79 613.611 48.79 596.111C43.79 576.111 48.79 556.111 61.29 543.611C101.29 506.111 123.79 453.611 123.79 396.111V283.611C123.79 276.111 118.79 268.611 113.79 263.611C83.79 243.611 68.79 211.111 73.79 178.611C81.29 141.111 111.29 111.111 146.29 103.611C151.29 103.611 156.29 103.611 161.29 103.611C181.29 103.611 198.79 111.111 208.79 118.611C213.79 121.111 221.29 123.611 228.79 121.111C236.29 118.611 241.29 116.111 243.79 111.111C253.79 96.1111 268.79 81.1111 283.79 71.1111C283.79 71.1111 283.79 71.1111 286.29 71.1111C296.29 66.1111 303.79 61.1111 313.79 58.6111C313.79 58.6111 316.29 58.6111 318.79 58.6111C321.29 58.6111 326.29 56.1111 331.29 56.1111H333.79C343.79 56.1111 351.29 53.6111 363.79 56.1111H366.29C368.79 56.1111 371.29 56.1111 376.29 58.6111H381.29C383.79 58.6111 386.29 61.1111 388.79 61.1111L393.79 63.6111C396.29 63.6111 398.79 66.1111 401.29 66.1111L403.79 68.6111C406.29 71.1111 408.79 71.1111 411.29 73.6111L413.79 76.1111C418.79 76.1111 423.79 78.6111 426.29 81.1111C433.79 86.1111 438.79 93.6111 446.29 101.111C453.79 108.611 463.79 113.611 473.79 108.611C493.79 101.111 513.79 103.611 531.29 113.611C556.29 126.111 571.29 151.111 573.79 176.111C573.79 196.111 566.29 216.111 553.79 231.111ZM648.79 491.111C648.79 511.111 631.29 528.611 611.29 528.611C591.29 528.611 573.79 511.111 573.79 491.111V366.111C573.79 346.111 591.29 328.611 611.29 328.611C631.29 328.611 648.79 346.111 648.79 366.111V491.111Z" fill="black"/>
</svg>
