<svg width="58" height="56" viewBox="0 0 58 56" fill="none" xmlns="http://www.w3.org/2000/svg">
<path d="M38.2991 55.7748L24.6658 55.5959C23.4198 55.687 22.1843 55.338 21.2441 54.6291C20.3038 53.9212 19.7397 52.9137 19.6826 51.8403L13.3339 13.9156C13.2769 13.6146 13.3783 13.3077 13.6098 13.077C13.8412 12.8457 14.18 12.7147 14.5345 12.7188H48.9139C49.2689 12.7147 49.6072 12.8458 49.8393 13.077C50.071 13.3077 50.1719 13.6146 50.1146 13.9156L43.2719 52.0191C43.1563 53.0973 42.6518 54.0956 41.7137 54.8042C40.7765 55.5124 39.5444 55.863 38.2991 55.7748Z" fill="#33806C"/>
<path d="M9.48664 10.3492C9.01699 10.3492 8.60391 10.0251 8.52786 9.57058L7.81055 5.28516H12.7386C13.2755 5.28516 13.7107 5.69869 13.7107 6.20868C13.7107 6.7188 13.2755 7.1322 12.7386 7.1322H10.0883L10.4479 9.28043C10.5322 9.78417 10.1707 10.2574 9.64054 10.3375C9.58887 10.3454 9.53734 10.3492 9.48664 10.3492Z" fill="#33806C"/>
<path d="M39.8986 12.8008L49.0169 12.9371C49.4088 12.8962 49.9068 13.2638 50.0457 13.5045C50.1841 13.7445 50.2274 13.9845 50.1518 14.3621L43.1848 52.3807C43.0774 53.5068 42.0193 54.7664 41.3163 55.0717C41.1028 55.1645 40.2349 55.7749 38.7211 55.7673L38.298 55.7749L34.745 55.7199C33.9035 55.7537 33.1486 54.8921 32.5703 54.1452" fill="#33806C"/>
<path d="M33.9943 55.8402H19.5828C16.5339 55.8402 15.7205 53.8554 15.7205 52.6824L15.7233 52.6115C15.7244 52.5991 15.7248 52.5866 15.7247 52.5745L9.18213 13.4841C9.0978 12.9804 9.45935 12.5072 9.98948 12.4269C10.5223 12.347 11.018 12.6904 11.1022 13.194L17.6586 52.3682L17.6616 52.4049C17.6698 52.5057 17.6709 52.6078 17.6648 52.7094C17.674 53.2013 17.9439 53.9932 19.5827 53.9932H33.9942C35.7318 53.9932 35.9047 53.037 35.9121 52.7055C35.907 52.6082 35.9078 52.5107 35.9146 52.4135L35.9244 52.3316L43.4899 7.1322H16.3487C15.8118 7.1322 15.3766 6.71886 15.3766 6.20868C15.3766 5.69869 15.8118 5.28516 16.3487 5.28516H45.7678L37.8531 52.5712C37.8528 52.5874 37.8534 52.6039 37.8545 52.6199L37.8566 52.6824C37.8566 53.7748 37.0495 55.8402 33.9943 55.8402Z" fill="black"/>
</svg>
