<svg width="211" height="800" viewBox="0 0 211 800" fill="none" xmlns="http://www.w3.org/2000/svg">
<path d="M178.318 0C160.461 0 145.931 14.5281 145.931 32.3874V179.979H137.74V32.3874C137.742 14.5281 123.212 0 105.353 0C87.4936 0 72.9655 14.5281 72.9655 32.3874V179.979H64.7764V32.3874C64.7764 14.5281 50.2483 0 32.389 0C14.5297 0 0 14.5281 0 32.3874V193.339C0 221.69 23.0656 244.759 51.4186 244.759H72.9655V452.887H64.028C57.0874 452.887 51.4608 458.512 51.4608 465.454V520.299V746.113C51.4608 775.827 75.6358 800.002 105.351 800.002C135.067 800.002 159.243 775.827 159.243 746.113V520.297V465.452C159.243 458.51 153.617 452.885 146.676 452.885H137.739V244.756H159.289C187.639 244.756 210.704 221.689 210.704 193.336V32.3874C210.707 14.5281 196.178 0 178.318 0ZM134.114 746.111C134.114 761.966 121.212 774.866 105.354 774.866C89.4967 774.866 76.5967 761.966 76.5967 746.109V532.863H134.114V746.111ZM134.114 507.729H76.5936V478.018H85.5295H125.173H134.112V507.729H134.114ZM98.0982 452.883V244.756H112.609V452.883H98.0982ZM159.292 219.625H125.176H85.5326H51.4171C36.9249 219.625 25.1328 207.834 25.1328 193.339V32.3874C25.1328 28.3874 28.3874 25.1343 32.3874 25.1343C36.3874 25.1343 39.6406 28.389 39.6406 32.3874V192.546C39.6406 199.489 45.2671 205.114 52.2077 205.114H85.5295C92.4701 205.114 98.0967 199.489 98.0967 192.546V32.3874C98.0967 28.3874 101.351 25.1343 105.351 25.1343C109.351 25.1343 112.606 28.389 112.606 32.3874V192.546C112.606 199.489 118.233 205.114 125.173 205.114H158.497C165.437 205.114 171.064 199.489 171.064 192.546V32.3874C171.064 28.3874 174.318 25.1343 178.317 25.1343C182.318 25.1343 185.572 28.389 185.572 32.3874V193.339C185.573 207.832 173.784 219.625 159.292 219.625Z" fill="black"/>
</svg>
