<svg width="60" height="57" viewBox="0 0 60 57" fill="none" xmlns="http://www.w3.org/2000/svg">
<ellipse cx="29.5515" cy="28.1443" rx="29.5515" ry="28.1443" fill="black"/>
<g filter="url(#filter0_d_3153_16147)">
<path d="M8.93395 32.2669C8.91662 32.0763 8.89495 31.7859 8.86895 31.3959C8.84295 31.0059 8.81912 30.5553 8.79745 30.0439C8.77579 29.5326 8.75412 28.9974 8.73245 28.4384C8.71512 27.8751 8.69995 27.3226 8.68695 26.7809C8.67829 26.2349 8.67395 25.7366 8.67395 25.2859C8.67395 25.0043 8.67612 24.7486 8.68045 24.5189C8.68912 24.2849 8.69995 24.0921 8.71295 23.9404C8.75195 23.9361 8.82562 23.9296 8.93395 23.9209C9.04662 23.9123 9.17229 23.9058 9.31095 23.9014C9.44962 23.8928 9.58395 23.8863 9.71395 23.8819C9.84829 23.8776 9.95879 23.8754 10.0455 23.8754C10.0281 24.1138 10.0151 24.3868 10.0065 24.6944C10.0021 24.9978 9.99995 25.2903 9.99995 25.5719C9.99995 25.9706 10.0043 26.3498 10.013 26.7094C10.0216 27.0648 10.0281 27.2944 10.0325 27.3984C10.1278 27.3898 10.2621 27.3811 10.4355 27.3724C10.6088 27.3594 10.7995 27.3486 11.0075 27.3399C11.2198 27.3269 11.43 27.3161 11.638 27.3074C11.846 27.2944 12.0366 27.2858 12.21 27.2814C12.3833 27.2728 12.5155 27.2684 12.6065 27.2684C12.6151 27.0821 12.6238 26.8438 12.6325 26.5534C12.6411 26.2631 12.652 25.9533 12.665 25.6239C12.678 25.2903 12.691 24.9631 12.704 24.6424C12.7213 24.3218 12.7365 24.0401 12.7495 23.7974C12.8101 23.7931 12.8795 23.7909 12.9575 23.7909C13.0398 23.7866 13.1243 23.7844 13.211 23.7844C13.3843 23.7844 13.5576 23.7888 13.731 23.7974C13.9043 23.8061 14.0343 23.8169 14.121 23.8299C14.095 24.0076 14.069 24.2589 14.043 24.5839C14.0213 24.9089 13.9975 25.2816 13.9715 25.7019C13.9498 26.1179 13.9303 26.5599 13.913 27.0279C13.8956 27.4959 13.8805 27.9639 13.8675 28.4319C13.8545 28.8999 13.8458 29.3463 13.8415 29.7709C13.8328 30.1089 13.8263 30.4361 13.822 30.7524C13.8176 31.0644 13.8133 31.3483 13.809 31.6039C13.809 31.8596 13.8111 32.0698 13.8155 32.2344C13.7461 32.2431 13.6421 32.2518 13.5035 32.2604C13.3691 32.2648 13.2218 32.2691 13.0615 32.2734C12.9055 32.2734 12.7538 32.2734 12.6065 32.2734C12.6065 32.0004 12.6065 31.6906 12.6065 31.3439C12.6065 30.9973 12.6043 30.6463 12.6 30.2909C12.6 29.9313 12.5978 29.5933 12.5935 29.2769C12.5935 28.9606 12.5935 28.6941 12.5935 28.4774C12.5068 28.4818 12.379 28.4861 12.21 28.4904C12.041 28.4904 11.8525 28.4948 11.6445 28.5034C11.4408 28.5078 11.235 28.5121 11.027 28.5164C10.8233 28.5208 10.637 28.5251 10.468 28.5294C10.3033 28.5294 10.1776 28.5294 10.091 28.5294C10.104 28.8458 10.1191 29.2011 10.1365 29.5954C10.1581 29.9898 10.1776 30.3754 10.195 30.7524C10.2166 31.1251 10.2361 31.4458 10.2535 31.7144C10.2708 31.9788 10.2795 32.1413 10.2795 32.2019C10.2188 32.2106 10.1321 32.2193 10.0195 32.2279C9.90679 32.2366 9.78112 32.2453 9.64245 32.2539C9.50812 32.2583 9.37812 32.2626 9.25245 32.2669C9.12679 32.2669 9.02062 32.2669 8.93395 32.2669ZM18.4938 32.4099C17.9522 32.4099 17.4603 32.3384 17.0183 32.1954C16.5807 32.0481 16.2318 31.8141 15.9718 31.4934C15.7118 31.1684 15.5818 30.7373 15.5818 30.1999C15.5818 29.6843 15.727 29.2574 16.0173 28.9194C16.3077 28.5814 16.6998 28.3323 17.1938 28.1719C17.6922 28.0073 18.249 27.9249 18.8643 27.9249C19.1503 27.9249 19.4298 27.9466 19.7028 27.9899C19.9758 28.0289 20.212 28.0766 20.4113 28.1329C20.6107 28.1849 20.745 28.2261 20.8143 28.2564C20.8013 28.1134 20.7753 27.9683 20.7363 27.8209C20.7017 27.6693 20.6475 27.5371 20.5738 27.4244C20.4092 27.1341 20.1687 26.8958 19.8523 26.7094C19.5403 26.5188 19.1482 26.4234 18.6758 26.4234C18.1775 26.4234 17.755 26.5318 17.4083 26.7484C17.0617 26.9608 16.8017 27.2143 16.6283 27.5089L15.5753 26.8134C15.766 26.5318 16.0173 26.2826 16.3293 26.0659C16.6413 25.8493 17.001 25.6781 17.4083 25.5524C17.8157 25.4268 18.2533 25.3639 18.7213 25.3639C19.4493 25.3639 20.0517 25.5026 20.5283 25.7799C21.005 26.0573 21.3538 26.4234 21.5748 26.8784C21.6875 27.1081 21.7763 27.3594 21.8413 27.6324C21.9063 27.9054 21.9453 28.2434 21.9583 28.6464C21.967 29.0711 21.9757 29.4329 21.9843 29.7319C21.9973 30.0309 22.0103 30.2888 22.0233 30.5054C22.045 30.7871 22.0883 30.9691 22.1533 31.0514C22.2183 31.1338 22.3115 31.1749 22.4328 31.1749C22.5715 31.1749 22.6885 31.1164 22.7838 30.9994C22.8792 30.8781 22.9333 30.7091 22.9463 30.4924L23.5703 31.1814C23.5443 31.5454 23.4165 31.8228 23.1868 32.0134C22.9572 32.2041 22.6885 32.2994 22.3808 32.2994C22.1382 32.2994 21.9237 32.2539 21.7373 32.1629C21.5553 32.0676 21.4102 31.9463 21.3018 31.7989C21.1935 31.6516 21.1307 31.4999 21.1133 31.3439C21.0267 31.5043 20.8577 31.6668 20.6063 31.8314C20.3593 31.9961 20.0538 32.1348 19.6898 32.2474C19.3302 32.3558 18.9315 32.4099 18.4938 32.4099ZM18.7278 31.3894C19.0095 31.3894 19.2847 31.3461 19.5533 31.2594C19.822 31.1728 20.069 31.0579 20.2943 30.9149C20.524 30.7719 20.7125 30.6138 20.8598 30.4404C20.8555 30.1718 20.8555 29.9334 20.8598 29.7254C20.8642 29.5131 20.8707 29.3181 20.8793 29.1404C20.7537 29.0971 20.5132 29.0408 20.1578 28.9714C19.8025 28.8978 19.4017 28.8609 18.9553 28.8609C18.5697 28.8609 18.2187 28.9129 17.9023 29.0169C17.5903 29.1166 17.3412 29.2618 17.1548 29.4524C16.9728 29.6431 16.8818 29.8728 16.8818 30.1414C16.8818 30.4664 16.9598 30.7199 17.1158 30.9019C17.2762 31.0796 17.495 31.2053 17.7723 31.2789C18.0497 31.3526 18.3682 31.3894 18.7278 31.3894ZM26.7093 32.7999C26.3063 32.7999 25.9055 32.7436 25.5068 32.6309C25.1082 32.5183 24.7442 32.3688 24.4148 32.1824C24.0898 31.9918 23.8298 31.7816 23.6348 31.5519C23.6652 31.4913 23.7085 31.4089 23.7648 31.3049C23.8212 31.2009 23.8862 31.0926 23.9598 30.9799C24.0335 30.8629 24.1072 30.7568 24.1808 30.6614C24.2545 30.5618 24.3195 30.4859 24.3758 30.4339C24.5622 30.6419 24.7853 30.8434 25.0453 31.0384C25.3053 31.2291 25.5848 31.3851 25.8838 31.5064C26.1828 31.6234 26.4818 31.6819 26.7808 31.6819C27.0668 31.6819 27.3247 31.6408 27.5543 31.5584C27.7883 31.4718 27.9725 31.3483 28.1068 31.1879C28.2455 31.0276 28.3148 30.8348 28.3148 30.6094C28.3148 30.3494 28.2325 30.1263 28.0678 29.9399C27.9032 29.7493 27.6822 29.5824 27.4048 29.4394C27.1275 29.2921 26.822 29.1578 26.4883 29.0364C26.0853 28.8891 25.717 28.7288 25.3833 28.5554C25.054 28.3778 24.7897 28.1568 24.5903 27.8924C24.3953 27.6281 24.2978 27.2923 24.2978 26.8849C24.2978 26.4689 24.4148 26.1223 24.6488 25.8449C24.8872 25.5676 25.1992 25.3574 25.5848 25.2144C25.9748 25.0714 26.3952 24.9999 26.8458 24.9999C27.3485 24.9999 27.81 25.0649 28.2303 25.1949C28.655 25.3206 28.98 25.4679 29.2053 25.6369C29.188 25.7106 29.1512 25.8081 29.0948 25.9294C29.0385 26.0464 28.9735 26.1656 28.8998 26.2869C28.8262 26.4083 28.7503 26.5188 28.6723 26.6184C28.4643 26.4798 28.2108 26.3476 27.9118 26.2219C27.6128 26.0963 27.2878 26.0334 26.9368 26.0334C26.7028 26.0334 26.4775 26.0616 26.2608 26.1179C26.0442 26.1699 25.8665 26.2588 25.7278 26.3844C25.5892 26.5101 25.5198 26.6813 25.5198 26.8979C25.5198 27.0843 25.587 27.2511 25.7213 27.3984C25.86 27.5458 26.0463 27.6779 26.2803 27.7949C26.5143 27.9076 26.7787 28.0159 27.0733 28.1199C27.4287 28.2413 27.758 28.3778 28.0613 28.5294C28.3647 28.6768 28.6268 28.8479 28.8478 29.0429C29.0732 29.2336 29.2487 29.4546 29.3743 29.7059C29.5 29.9529 29.5628 30.2324 29.5628 30.5444C29.5628 31.0428 29.435 31.4588 29.1793 31.7924C28.9237 32.1261 28.5813 32.3774 28.1523 32.5464C27.7233 32.7154 27.2423 32.7999 26.7093 32.7999ZM33.1585 32.7999C32.7555 32.7999 32.3547 32.7436 31.956 32.6309C31.5574 32.5183 31.1934 32.3688 30.864 32.1824C30.539 31.9918 30.279 31.7816 30.084 31.5519C30.1144 31.4913 30.1577 31.4089 30.214 31.3049C30.2704 31.2009 30.3354 31.0926 30.409 30.9799C30.4827 30.8629 30.5564 30.7568 30.63 30.6614C30.7037 30.5618 30.7687 30.4859 30.825 30.4339C31.0114 30.6419 31.2345 30.8434 31.4945 31.0384C31.7545 31.2291 32.034 31.3851 32.333 31.5064C32.632 31.6234 32.931 31.6819 33.23 31.6819C33.516 31.6819 33.7739 31.6408 34.0035 31.5584C34.2375 31.4718 34.4217 31.3483 34.556 31.1879C34.6947 31.0276 34.764 30.8348 34.764 30.6094C34.764 30.3494 34.6817 30.1263 34.517 29.9399C34.3524 29.7493 34.1314 29.5824 33.854 29.4394C33.5767 29.2921 33.2712 29.1578 32.9375 29.0364C32.5345 28.8891 32.1662 28.7288 31.8325 28.5554C31.5032 28.3778 31.2389 28.1568 31.0395 27.8924C30.8445 27.6281 30.747 27.2923 30.747 26.8849C30.747 26.4689 30.864 26.1223 31.098 25.8449C31.3364 25.5676 31.6484 25.3574 32.034 25.2144C32.424 25.0714 32.8444 24.9999 33.295 24.9999C33.7977 24.9999 34.2592 25.0649 34.6795 25.1949C35.1042 25.3206 35.4292 25.4679 35.6545 25.6369C35.6372 25.7106 35.6004 25.8081 35.544 25.9294C35.4877 26.0464 35.4227 26.1656 35.349 26.2869C35.2754 26.4083 35.1995 26.5188 35.1215 26.6184C34.9135 26.4798 34.66 26.3476 34.361 26.2219C34.062 26.0963 33.737 26.0334 33.386 26.0334C33.152 26.0334 32.9267 26.0616 32.71 26.1179C32.4934 26.1699 32.3157 26.2588 32.177 26.3844C32.0384 26.5101 31.969 26.6813 31.969 26.8979C31.969 27.0843 32.0362 27.2511 32.1705 27.3984C32.3092 27.5458 32.4955 27.6779 32.7295 27.7949C32.9635 27.9076 33.2279 28.0159 33.5225 28.1199C33.8779 28.2413 34.2072 28.3778 34.5105 28.5294C34.8139 28.6768 35.076 28.8479 35.297 29.0429C35.5224 29.2336 35.6979 29.4546 35.8235 29.7059C35.9492 29.9529 36.012 30.2324 36.012 30.5444C36.012 31.0428 35.8842 31.4588 35.6285 31.7924C35.3729 32.1261 35.0305 32.3774 34.6015 32.5464C34.1725 32.7154 33.6915 32.7999 33.1585 32.7999ZM41.5253 25.7734C41.5903 25.7561 41.6834 25.7409 41.8048 25.7279C41.9304 25.7149 42.0561 25.7084 42.1818 25.7084C42.2858 25.7084 42.3984 25.7128 42.5198 25.7214C42.6454 25.7258 42.7451 25.7344 42.8188 25.7474C42.8881 26.1678 42.9466 26.5968 42.9943 27.0344C43.0419 27.4721 43.0658 27.9033 43.0658 28.3279C43.0658 28.9086 43.0159 29.4568 42.9163 29.9724C42.8166 30.4881 42.6519 30.9431 42.4223 31.3374C42.1969 31.7274 41.8914 32.0351 41.5058 32.2604C41.1244 32.4858 40.6499 32.5984 40.0823 32.5984C39.4626 32.5984 38.9534 32.4771 38.5548 32.2344C38.1561 31.9874 37.8463 31.6473 37.6253 31.2139C37.4043 30.7763 37.2483 30.2736 37.1573 29.7059C37.0706 29.1383 37.0273 28.5316 37.0273 27.8859C37.0273 27.4916 37.0403 27.0929 37.0663 26.6899C37.0923 26.2869 37.1204 25.8926 37.1508 25.5069C37.2288 25.5026 37.3263 25.5004 37.4433 25.5004C37.5646 25.5004 37.6729 25.5026 37.7683 25.5069C37.9026 25.5156 38.0348 25.5286 38.1648 25.5459C38.2991 25.5589 38.4096 25.5784 38.4963 25.6044C38.4529 25.9944 38.4183 26.3801 38.3923 26.7614C38.3663 27.1428 38.3533 27.5111 38.3533 27.8664C38.3533 28.6291 38.4161 29.2748 38.5418 29.8034C38.6718 30.3321 38.8646 30.7329 39.1203 31.0059C39.3803 31.2789 39.7053 31.4154 40.0953 31.4154C40.4593 31.4154 40.7626 31.2919 41.0053 31.0449C41.2523 30.7979 41.4386 30.4404 41.5643 29.9724C41.6899 29.5001 41.7528 28.9259 41.7528 28.2499C41.7528 27.8643 41.7333 27.4613 41.6943 27.0409C41.6553 26.6163 41.5989 26.1938 41.5253 25.7734ZM46.158 32.3579C46.0757 32.3579 45.976 32.3579 45.859 32.3579C45.742 32.3623 45.625 32.3623 45.508 32.3579C45.3997 32.3536 45.2762 32.3471 45.1375 32.3384C44.9989 32.3341 44.897 32.3276 44.832 32.3189C44.8754 31.9593 44.9122 31.5671 44.9425 31.1424C44.9772 30.7134 45.0054 30.2324 45.027 29.6994C45.0487 29.1621 45.066 28.5533 45.079 27.8729C45.092 27.1883 45.0985 26.4104 45.0985 25.5394C45.2025 25.5221 45.326 25.5091 45.469 25.5004C45.6164 25.4874 45.7659 25.4809 45.9175 25.4809C46.0129 25.4809 46.1082 25.4831 46.2035 25.4874C46.3032 25.4918 46.3899 25.5004 46.4635 25.5134C46.4679 25.5611 46.47 25.6478 46.47 25.7734C46.4744 25.8991 46.4744 26.0378 46.47 26.1894C46.47 26.3411 46.47 26.4754 46.47 26.5924C46.6304 26.4148 46.8579 26.2328 47.1525 26.0464C47.4472 25.8601 47.7765 25.7041 48.1405 25.5784C48.5045 25.4484 48.8707 25.3834 49.239 25.3834C49.8977 25.3834 50.3982 25.5156 50.7405 25.7799C51.0829 26.0399 51.3147 26.4256 51.436 26.9369C51.5617 27.4483 51.6245 28.0831 51.6245 28.8414C51.6245 29.1361 51.6159 29.4698 51.5985 29.8424C51.5855 30.2151 51.5617 30.6094 51.527 31.0254C51.4967 31.4414 51.4555 31.8639 51.4035 32.2929C51.3429 32.3016 51.2497 32.3081 51.124 32.3124C51.0027 32.3211 50.8727 32.3254 50.734 32.3254C50.5954 32.3254 50.4632 32.3233 50.3375 32.3189C50.2119 32.3146 50.1122 32.3059 50.0385 32.2929C50.0949 31.9246 50.1469 31.5411 50.1945 31.1424C50.2422 30.7394 50.2812 30.3408 50.3115 29.9464C50.3419 29.5478 50.357 29.1729 50.357 28.8219C50.357 28.3713 50.3224 27.9769 50.253 27.6389C50.188 27.3009 50.0559 27.0388 49.8565 26.8524C49.6615 26.6661 49.3734 26.5729 48.992 26.5729C48.5977 26.5729 48.2359 26.6379 47.9065 26.7679C47.5772 26.8979 47.289 27.0518 47.042 27.2294C46.7994 27.4071 46.6022 27.5653 46.4505 27.7039C46.4332 28.4363 46.4072 29.1079 46.3725 29.7189C46.3379 30.3299 46.301 30.8608 46.262 31.3114C46.223 31.7621 46.1884 32.1109 46.158 32.3579Z" fill="white"/>
</g>
<defs>
<filter id="filter0_d_3153_16147" x="4.67383" y="23.7852" width="50.9512" height="17.0156" filterUnits="userSpaceOnUse" color-interpolation-filters="sRGB">
<feFlood flood-opacity="0" result="BackgroundImageFix"/>
<feColorMatrix in="SourceAlpha" type="matrix" values="0 0 0 0 0 0 0 0 0 0 0 0 0 0 0 0 0 0 127 0" result="hardAlpha"/>
<feOffset dy="4"/>
<feGaussianBlur stdDeviation="2"/>
<feComposite in2="hardAlpha" operator="out"/>
<feColorMatrix type="matrix" values="0 0 0 0 0 0 0 0 0 0 0 0 0 0 0 0 0 0 0.25 0"/>
<feBlend mode="normal" in2="BackgroundImageFix" result="effect1_dropShadow_3153_16147"/>
<feBlend mode="normal" in="SourceGraphic" in2="effect1_dropShadow_3153_16147" result="shape"/>
</filter>
</defs>
</svg>
