<svg width="243" height="243" viewBox="0 0 243 243" fill="none" xmlns="http://www.w3.org/2000/svg">
<circle cx="121.5" cy="121.5" r="121.5" fill="black"/>
<g filter="url(#filter0_d_3082_16312)">
<path d="M65.754 138.054C65.706 137.526 65.646 136.722 65.574 135.642C65.502 134.562 65.436 133.314 65.376 131.898C65.316 130.482 65.256 129 65.196 127.452C65.148 125.892 65.106 124.362 65.07 122.862C65.046 121.35 65.034 119.97 65.034 118.722C65.034 117.942 65.04 117.234 65.052 116.598C65.076 115.95 65.106 115.416 65.142 114.996C65.25 114.984 65.454 114.966 65.754 114.942C66.066 114.918 66.414 114.9 66.798 114.888C67.182 114.864 67.554 114.846 67.914 114.834C68.286 114.822 68.592 114.816 68.832 114.816C68.784 115.476 68.748 116.232 68.724 117.084C68.712 117.924 68.706 118.734 68.706 119.514C68.706 120.618 68.718 121.668 68.742 122.664C68.766 123.648 68.784 124.284 68.796 124.572C69.06 124.548 69.432 124.524 69.912 124.5C70.392 124.464 70.92 124.434 71.496 124.41C72.084 124.374 72.666 124.344 73.242 124.32C73.818 124.284 74.346 124.26 74.826 124.248C75.306 124.224 75.672 124.212 75.924 124.212C75.948 123.696 75.972 123.036 75.996 122.232C76.02 121.428 76.05 120.57 76.086 119.658C76.122 118.734 76.158 117.828 76.194 116.94C76.242 116.052 76.284 115.272 76.32 114.6C76.488 114.588 76.68 114.582 76.896 114.582C77.124 114.57 77.358 114.564 77.598 114.564C78.078 114.564 78.558 114.576 79.038 114.6C79.518 114.624 79.878 114.654 80.118 114.69C80.046 115.182 79.974 115.878 79.902 116.778C79.842 117.678 79.776 118.71 79.704 119.874C79.644 121.026 79.59 122.25 79.542 123.546C79.494 124.842 79.452 126.138 79.416 127.434C79.38 128.73 79.356 129.966 79.344 131.142C79.32 132.078 79.302 132.984 79.29 133.86C79.278 134.724 79.266 135.51 79.254 136.218C79.254 136.926 79.26 137.508 79.272 137.964C79.08 137.988 78.792 138.012 78.408 138.036C78.036 138.048 77.628 138.06 77.184 138.072C76.752 138.072 76.332 138.072 75.924 138.072C75.924 137.316 75.924 136.458 75.924 135.498C75.924 134.538 75.918 133.566 75.906 132.582C75.906 131.586 75.9 130.65 75.888 129.774C75.888 128.898 75.888 128.16 75.888 127.56C75.648 127.572 75.294 127.584 74.826 127.596C74.358 127.596 73.836 127.608 73.26 127.632C72.696 127.644 72.126 127.656 71.55 127.668C70.986 127.68 70.47 127.692 70.002 127.704C69.546 127.704 69.198 127.704 68.958 127.704C68.994 128.58 69.036 129.564 69.084 130.656C69.144 131.748 69.198 132.816 69.246 133.86C69.306 134.892 69.36 135.78 69.408 136.524C69.456 137.256 69.48 137.706 69.48 137.874C69.312 137.898 69.072 137.922 68.76 137.946C68.448 137.97 68.1 137.994 67.716 138.018C67.344 138.03 66.984 138.042 66.636 138.054C66.288 138.054 65.994 138.054 65.754 138.054ZM92.2275 138.45C90.7275 138.45 89.3655 138.252 88.1415 137.856C86.9295 137.448 85.9635 136.8 85.2435 135.912C84.5235 135.012 84.1635 133.818 84.1635 132.33C84.1635 130.902 84.5655 129.72 85.3695 128.784C86.1735 127.848 87.2595 127.158 88.6275 126.714C90.0075 126.258 91.5495 126.03 93.2535 126.03C94.0455 126.03 94.8195 126.09 95.5755 126.21C96.3315 126.318 96.9855 126.45 97.5375 126.606C98.0895 126.75 98.4615 126.864 98.6535 126.948C98.6175 126.552 98.5455 126.15 98.4375 125.742C98.3415 125.322 98.1915 124.956 97.9875 124.644C97.5315 123.84 96.8655 123.18 95.9895 122.664C95.1255 122.136 94.0395 121.872 92.7315 121.872C91.3515 121.872 90.1815 122.172 89.2215 122.772C88.2615 123.36 87.5415 124.062 87.0615 124.878L84.1455 122.952C84.6735 122.172 85.3695 121.482 86.2335 120.882C87.0975 120.282 88.0935 119.808 89.2215 119.46C90.3495 119.112 91.5615 118.938 92.8575 118.938C94.8735 118.938 96.5415 119.322 97.8615 120.09C99.1815 120.858 100.148 121.872 100.76 123.132C101.072 123.768 101.318 124.464 101.498 125.22C101.678 125.976 101.786 126.912 101.822 128.028C101.846 129.204 101.87 130.206 101.894 131.034C101.93 131.862 101.966 132.576 102.002 133.176C102.062 133.956 102.182 134.46 102.362 134.688C102.542 134.916 102.8 135.03 103.136 135.03C103.52 135.03 103.844 134.868 104.108 134.544C104.372 134.208 104.522 133.74 104.558 133.14L106.286 135.048C106.214 136.056 105.86 136.824 105.224 137.352C104.588 137.88 103.844 138.144 102.992 138.144C102.32 138.144 101.726 138.018 101.21 137.766C100.706 137.502 100.304 137.166 100.004 136.758C99.7035 136.35 99.5295 135.93 99.4815 135.498C99.2415 135.942 98.7735 136.392 98.0775 136.848C97.3935 137.304 96.5475 137.688 95.5395 138C94.5435 138.3 93.4395 138.45 92.2275 138.45ZM92.8755 135.624C93.6555 135.624 94.4175 135.504 95.1615 135.264C95.9055 135.024 96.5895 134.706 97.2135 134.31C97.8495 133.914 98.3715 133.476 98.7795 132.996C98.7675 132.252 98.7675 131.592 98.7795 131.016C98.7915 130.428 98.8095 129.888 98.8335 129.396C98.4855 129.276 97.8195 129.12 96.8355 128.928C95.8515 128.724 94.7415 128.622 93.5055 128.622C92.4375 128.622 91.4655 128.766 90.5895 129.054C89.7255 129.33 89.0355 129.732 88.5195 130.26C88.0155 130.788 87.7635 131.424 87.7635 132.168C87.7635 133.068 87.9795 133.77 88.4115 134.274C88.8555 134.766 89.4615 135.114 90.2295 135.318C90.9975 135.522 91.8795 135.624 92.8755 135.624ZM114.978 139.53C113.862 139.53 112.752 139.374 111.648 139.062C110.544 138.75 109.536 138.336 108.624 137.82C107.724 137.292 107.004 136.71 106.464 136.074C106.548 135.906 106.668 135.678 106.824 135.39C106.98 135.102 107.16 134.802 107.364 134.49C107.568 134.166 107.772 133.872 107.976 133.608C108.18 133.332 108.36 133.122 108.516 132.978C109.032 133.554 109.65 134.112 110.37 134.652C111.09 135.18 111.864 135.612 112.692 135.948C113.52 136.272 114.348 136.434 115.176 136.434C115.968 136.434 116.682 136.32 117.318 136.092C117.966 135.852 118.476 135.51 118.848 135.066C119.232 134.622 119.424 134.088 119.424 133.464C119.424 132.744 119.196 132.126 118.74 131.61C118.284 131.082 117.672 130.62 116.904 130.224C116.136 129.816 115.29 129.444 114.366 129.108C113.25 128.7 112.23 128.256 111.306 127.776C110.394 127.284 109.662 126.672 109.11 125.94C108.57 125.208 108.3 124.278 108.3 123.15C108.3 121.998 108.624 121.038 109.272 120.27C109.932 119.502 110.796 118.92 111.864 118.524C112.944 118.128 114.108 117.93 115.356 117.93C116.748 117.93 118.026 118.11 119.19 118.47C120.366 118.818 121.266 119.226 121.89 119.694C121.842 119.898 121.74 120.168 121.584 120.504C121.428 120.828 121.248 121.158 121.044 121.494C120.84 121.83 120.63 122.136 120.414 122.412C119.838 122.028 119.136 121.662 118.308 121.314C117.48 120.966 116.58 120.792 115.608 120.792C114.96 120.792 114.336 120.87 113.736 121.026C113.136 121.17 112.644 121.416 112.26 121.764C111.876 122.112 111.684 122.586 111.684 123.186C111.684 123.702 111.87 124.164 112.242 124.572C112.626 124.98 113.142 125.346 113.79 125.67C114.438 125.982 115.17 126.282 115.986 126.57C116.97 126.906 117.882 127.284 118.722 127.704C119.562 128.112 120.288 128.586 120.9 129.126C121.524 129.654 122.01 130.266 122.358 130.962C122.706 131.646 122.88 132.42 122.88 133.284C122.88 134.664 122.526 135.816 121.818 136.74C121.11 137.664 120.162 138.36 118.974 138.828C117.786 139.296 116.454 139.53 114.978 139.53ZM132.837 139.53C131.721 139.53 130.611 139.374 129.507 139.062C128.403 138.75 127.395 138.336 126.483 137.82C125.583 137.292 124.863 136.71 124.323 136.074C124.407 135.906 124.527 135.678 124.683 135.39C124.839 135.102 125.019 134.802 125.223 134.49C125.427 134.166 125.631 133.872 125.835 133.608C126.039 133.332 126.219 133.122 126.375 132.978C126.891 133.554 127.509 134.112 128.229 134.652C128.949 135.18 129.723 135.612 130.551 135.948C131.379 136.272 132.207 136.434 133.035 136.434C133.827 136.434 134.541 136.32 135.177 136.092C135.825 135.852 136.335 135.51 136.707 135.066C137.091 134.622 137.283 134.088 137.283 133.464C137.283 132.744 137.055 132.126 136.599 131.61C136.143 131.082 135.531 130.62 134.763 130.224C133.995 129.816 133.149 129.444 132.225 129.108C131.109 128.7 130.089 128.256 129.165 127.776C128.253 127.284 127.521 126.672 126.969 125.94C126.429 125.208 126.159 124.278 126.159 123.15C126.159 121.998 126.483 121.038 127.131 120.27C127.791 119.502 128.655 118.92 129.723 118.524C130.803 118.128 131.967 117.93 133.215 117.93C134.607 117.93 135.885 118.11 137.049 118.47C138.225 118.818 139.125 119.226 139.749 119.694C139.701 119.898 139.599 120.168 139.443 120.504C139.287 120.828 139.107 121.158 138.903 121.494C138.699 121.83 138.489 122.136 138.273 122.412C137.697 122.028 136.995 121.662 136.167 121.314C135.339 120.966 134.439 120.792 133.467 120.792C132.819 120.792 132.195 120.87 131.595 121.026C130.995 121.17 130.503 121.416 130.119 121.764C129.735 122.112 129.543 122.586 129.543 123.186C129.543 123.702 129.729 124.164 130.101 124.572C130.485 124.98 131.001 125.346 131.649 125.67C132.297 125.982 133.029 126.282 133.845 126.57C134.829 126.906 135.741 127.284 136.581 127.704C137.421 128.112 138.147 128.586 138.759 129.126C139.383 129.654 139.869 130.266 140.217 130.962C140.565 131.646 140.739 132.42 140.739 133.284C140.739 134.664 140.385 135.816 139.677 136.74C138.969 137.664 138.021 138.36 136.833 138.828C135.645 139.296 134.313 139.53 132.837 139.53ZM156.007 120.072C156.187 120.024 156.445 119.982 156.781 119.946C157.129 119.91 157.477 119.892 157.825 119.892C158.113 119.892 158.425 119.904 158.761 119.928C159.109 119.94 159.385 119.964 159.589 120C159.781 121.164 159.943 122.352 160.075 123.564C160.207 124.776 160.273 125.97 160.273 127.146C160.273 128.754 160.135 130.272 159.859 131.7C159.583 133.128 159.127 134.388 158.491 135.48C157.867 136.56 157.021 137.412 155.953 138.036C154.897 138.66 153.583 138.972 152.011 138.972C150.295 138.972 148.885 138.636 147.781 137.964C146.677 137.28 145.819 136.338 145.207 135.138C144.595 133.926 144.163 132.534 143.911 130.962C143.671 129.39 143.551 127.71 143.551 125.922C143.551 124.83 143.587 123.726 143.659 122.61C143.731 121.494 143.809 120.402 143.893 119.334C144.109 119.322 144.379 119.316 144.703 119.316C145.039 119.316 145.339 119.322 145.603 119.334C145.975 119.358 146.341 119.394 146.701 119.442C147.073 119.478 147.379 119.532 147.619 119.604C147.499 120.684 147.403 121.752 147.331 122.808C147.259 123.864 147.223 124.884 147.223 125.868C147.223 127.98 147.397 129.768 147.745 131.232C148.105 132.696 148.639 133.806 149.347 134.562C150.067 135.318 150.967 135.696 152.047 135.696C153.055 135.696 153.895 135.354 154.567 134.67C155.251 133.986 155.767 132.996 156.115 131.7C156.463 130.392 156.637 128.802 156.637 126.93C156.637 125.862 156.583 124.746 156.475 123.582C156.367 122.406 156.211 121.236 156.007 120.072ZM168.836 138.306C168.608 138.306 168.332 138.306 168.008 138.306C167.684 138.318 167.36 138.318 167.036 138.306C166.736 138.294 166.394 138.276 166.01 138.252C165.626 138.24 165.344 138.222 165.164 138.198C165.284 137.202 165.386 136.116 165.47 134.94C165.566 133.752 165.644 132.42 165.704 130.944C165.764 129.456 165.812 127.77 165.848 125.886C165.884 123.99 165.902 121.836 165.902 119.424C166.19 119.376 166.532 119.34 166.928 119.316C167.336 119.28 167.75 119.262 168.17 119.262C168.434 119.262 168.698 119.268 168.962 119.28C169.238 119.292 169.478 119.316 169.682 119.352C169.694 119.484 169.7 119.724 169.7 120.072C169.712 120.42 169.712 120.804 169.7 121.224C169.7 121.644 169.7 122.016 169.7 122.34C170.144 121.848 170.774 121.344 171.59 120.828C172.406 120.312 173.318 119.88 174.326 119.532C175.334 119.172 176.348 118.992 177.368 118.992C179.192 118.992 180.578 119.358 181.526 120.09C182.474 120.81 183.116 121.878 183.452 123.294C183.8 124.71 183.974 126.468 183.974 128.568C183.974 129.384 183.95 130.308 183.902 131.34C183.866 132.372 183.8 133.464 183.704 134.616C183.62 135.768 183.506 136.938 183.362 138.126C183.194 138.15 182.936 138.168 182.588 138.18C182.252 138.204 181.892 138.216 181.508 138.216C181.124 138.216 180.758 138.21 180.41 138.198C180.062 138.186 179.786 138.162 179.582 138.126C179.738 137.106 179.882 136.044 180.014 134.94C180.146 133.824 180.254 132.72 180.338 131.628C180.422 130.524 180.464 129.486 180.464 128.514C180.464 127.266 180.368 126.174 180.176 125.238C179.996 124.302 179.63 123.576 179.078 123.06C178.538 122.544 177.74 122.286 176.684 122.286C175.592 122.286 174.59 122.466 173.678 122.826C172.766 123.186 171.968 123.612 171.284 124.104C170.612 124.596 170.066 125.034 169.646 125.418C169.598 127.446 169.526 129.306 169.43 130.998C169.334 132.69 169.232 134.16 169.124 135.408C169.016 136.656 168.92 137.622 168.836 138.306Z" fill="white"/>
</g>
<defs>
<filter id="filter0_d_3082_16312" x="61.0332" y="114.564" width="126.941" height="32.9648" filterUnits="userSpaceOnUse" color-interpolation-filters="sRGB">
<feFlood flood-opacity="0" result="BackgroundImageFix"/>
<feColorMatrix in="SourceAlpha" type="matrix" values="0 0 0 0 0 0 0 0 0 0 0 0 0 0 0 0 0 0 127 0" result="hardAlpha"/>
<feOffset dy="4"/>
<feGaussianBlur stdDeviation="2"/>
<feComposite in2="hardAlpha" operator="out"/>
<feColorMatrix type="matrix" values="0 0 0 0 0 0 0 0 0 0 0 0 0 0 0 0 0 0 0.25 0"/>
<feBlend mode="normal" in2="BackgroundImageFix" result="effect1_dropShadow_3082_16312"/>
<feBlend mode="normal" in="SourceGraphic" in2="effect1_dropShadow_3082_16312" result="shape"/>
</filter>
</defs>
</svg>
