<svg width="35" height="43" viewBox="0 0 35 43" fill="none" xmlns="http://www.w3.org/2000/svg">
<path d="M34 16.5C34 25.6127 22 34 17.5 42.5C14 32 1 25.6127 1 16.5C1 7.3873 8.3873 0 17.5 0C26.6127 0 34 7.3873 34 16.5Z" fill="black"/>
<g filter="url(#filter0_d_3250_16079)">
<path d="M4.612 19.996C4.60133 19.8787 4.588 19.7 4.572 19.46C4.556 19.22 4.54133 18.9427 4.528 18.628C4.51467 18.3133 4.50133 17.984 4.488 17.64C4.47733 17.2933 4.468 16.9533 4.46 16.62C4.45467 16.284 4.452 15.9773 4.452 15.7C4.452 15.5267 4.45333 15.3693 4.456 15.228C4.46133 15.084 4.468 14.9653 4.476 14.872C4.5 14.8693 4.54533 14.8653 4.612 14.86C4.68133 14.8547 4.75867 14.8507 4.844 14.848C4.92933 14.8427 5.012 14.8387 5.092 14.836C5.17467 14.8333 5.24267 14.832 5.296 14.832C5.28533 14.9787 5.27733 15.1467 5.272 15.336C5.26933 15.5227 5.268 15.7027 5.268 15.876C5.268 16.1213 5.27067 16.3547 5.276 16.576C5.28133 16.7947 5.28533 16.936 5.288 17C5.34667 16.9947 5.42933 16.9893 5.536 16.984C5.64267 16.976 5.76 16.9693 5.888 16.964C6.01867 16.956 6.148 16.9493 6.276 16.944C6.404 16.936 6.52133 16.9307 6.628 16.928C6.73467 16.9227 6.816 16.92 6.872 16.92C6.87733 16.8053 6.88267 16.6587 6.888 16.48C6.89333 16.3013 6.9 16.1107 6.908 15.908C6.916 15.7027 6.924 15.5013 6.932 15.304C6.94267 15.1067 6.952 14.9333 6.96 14.784C6.99733 14.7813 7.04 14.78 7.088 14.78C7.13867 14.7773 7.19067 14.776 7.244 14.776C7.35067 14.776 7.45733 14.7787 7.564 14.784C7.67067 14.7893 7.75067 14.796 7.804 14.804C7.788 14.9133 7.772 15.068 7.756 15.268C7.74267 15.468 7.728 15.6973 7.712 15.956C7.69867 16.212 7.68667 16.484 7.676 16.772C7.66533 17.06 7.656 17.348 7.648 17.636C7.64 17.924 7.63467 18.1987 7.632 18.46C7.62667 18.668 7.62267 18.8693 7.62 19.064C7.61733 19.256 7.61467 19.4307 7.612 19.588C7.612 19.7453 7.61333 19.8747 7.616 19.976C7.57333 19.9813 7.50933 19.9867 7.424 19.992C7.34133 19.9947 7.25067 19.9973 7.152 20C7.056 20 6.96267 20 6.872 20C6.872 19.832 6.872 19.6413 6.872 19.428C6.872 19.2147 6.87067 18.9987 6.868 18.78C6.868 18.5587 6.86667 18.3507 6.864 18.156C6.864 17.9613 6.864 17.7973 6.864 17.664C6.81067 17.6667 6.732 17.6693 6.628 17.672C6.524 17.672 6.408 17.6747 6.28 17.68C6.15467 17.6827 6.028 17.6853 5.9 17.688C5.77467 17.6907 5.66 17.6933 5.556 17.696C5.45467 17.696 5.37733 17.696 5.324 17.696C5.332 17.8907 5.34133 18.1093 5.352 18.352C5.36533 18.5947 5.37733 18.832 5.388 19.064C5.40133 19.2933 5.41333 19.4907 5.424 19.656C5.43467 19.8187 5.44 19.9187 5.44 19.956C5.40267 19.9613 5.34933 19.9667 5.28 19.972C5.21067 19.9773 5.13333 19.9827 5.048 19.988C4.96533 19.9907 4.88533 19.9933 4.808 19.996C4.73067 19.996 4.66533 19.996 4.612 19.996ZM10.495 20.084C10.1617 20.084 9.859 20.04 9.587 19.952C9.31767 19.8613 9.103 19.7173 8.943 19.52C8.783 19.32 8.703 19.0547 8.703 18.724C8.703 18.4067 8.79233 18.144 8.971 17.936C9.14967 17.728 9.391 17.5747 9.695 17.476C10.0017 17.3747 10.3443 17.324 10.723 17.324C10.899 17.324 11.071 17.3373 11.239 17.364C11.407 17.388 11.5523 17.4173 11.675 17.452C11.7977 17.484 11.8803 17.5093 11.923 17.528C11.915 17.44 11.899 17.3507 11.875 17.26C11.8537 17.1667 11.8203 17.0853 11.775 17.016C11.6737 16.8373 11.5257 16.6907 11.331 16.576C11.139 16.4587 10.8977 16.4 10.607 16.4C10.3003 16.4 10.0403 16.4667 9.827 16.6C9.61367 16.7307 9.45367 16.8867 9.347 17.068L8.699 16.64C8.81633 16.4667 8.971 16.3133 9.163 16.18C9.355 16.0467 9.57633 15.9413 9.827 15.864C10.0777 15.7867 10.347 15.748 10.635 15.748C11.083 15.748 11.4537 15.8333 11.747 16.004C12.0403 16.1747 12.255 16.4 12.391 16.68C12.4603 16.8213 12.515 16.976 12.555 17.144C12.595 17.312 12.619 17.52 12.627 17.768C12.6323 18.0293 12.6377 18.252 12.643 18.436C12.651 18.62 12.659 18.7787 12.667 18.912C12.6803 19.0853 12.707 19.1973 12.747 19.248C12.787 19.2987 12.8443 19.324 12.919 19.324C13.0043 19.324 13.0763 19.288 13.135 19.216C13.1937 19.1413 13.227 19.0373 13.235 18.904L13.619 19.328C13.603 19.552 13.5243 19.7227 13.383 19.84C13.2417 19.9573 13.0763 20.016 12.887 20.016C12.7377 20.016 12.6057 19.988 12.491 19.932C12.379 19.8733 12.2897 19.7987 12.223 19.708C12.1563 19.6173 12.1177 19.524 12.107 19.428C12.0537 19.5267 11.9497 19.6267 11.795 19.728C11.643 19.8293 11.455 19.9147 11.231 19.984C11.0097 20.0507 10.7643 20.084 10.495 20.084ZM10.639 19.456C10.8123 19.456 10.9817 19.4293 11.147 19.376C11.3123 19.3227 11.4643 19.252 11.603 19.164C11.7443 19.076 11.8603 18.9787 11.951 18.872C11.9483 18.7067 11.9483 18.56 11.951 18.432C11.9537 18.3013 11.9577 18.1813 11.963 18.072C11.8857 18.0453 11.7377 18.0107 11.519 17.968C11.3003 17.9227 11.0537 17.9 10.779 17.9C10.5417 17.9 10.3257 17.932 10.131 17.996C9.939 18.0573 9.78567 18.1467 9.671 18.264C9.559 18.3813 9.503 18.5227 9.503 18.688C9.503 18.888 9.551 19.044 9.647 19.156C9.74567 19.2653 9.88033 19.3427 10.051 19.388C10.2217 19.4333 10.4177 19.456 10.639 19.456ZM15.5507 20.324C15.3027 20.324 15.056 20.2893 14.8107 20.22C14.5654 20.1507 14.3414 20.0587 14.1387 19.944C13.9387 19.8267 13.7787 19.6973 13.6587 19.556C13.6774 19.5187 13.704 19.468 13.7387 19.404C13.7734 19.34 13.8134 19.2733 13.8587 19.204C13.904 19.132 13.9494 19.0667 13.9947 19.008C14.04 18.9467 14.08 18.9 14.1147 18.868C14.2294 18.996 14.3667 19.12 14.5267 19.24C14.6867 19.3573 14.8587 19.4533 15.0427 19.528C15.2267 19.6 15.4107 19.636 15.5947 19.636C15.7707 19.636 15.9294 19.6107 16.0707 19.56C16.2147 19.5067 16.328 19.4307 16.4107 19.332C16.496 19.2333 16.5387 19.1147 16.5387 18.976C16.5387 18.816 16.488 18.6787 16.3867 18.564C16.2854 18.4467 16.1494 18.344 15.9787 18.256C15.808 18.1653 15.62 18.0827 15.4147 18.008C15.1667 17.9173 14.94 17.8187 14.7347 17.712C14.532 17.6027 14.3694 17.4667 14.2467 17.304C14.1267 17.1413 14.0667 16.9347 14.0667 16.684C14.0667 16.428 14.1387 16.2147 14.2827 16.044C14.4294 15.8733 14.6214 15.744 14.8587 15.656C15.0987 15.568 15.3574 15.524 15.6347 15.524C15.944 15.524 16.228 15.564 16.4867 15.644C16.748 15.7213 16.948 15.812 17.0867 15.916C17.076 15.9613 17.0534 16.0213 17.0187 16.096C16.984 16.168 16.944 16.2413 16.8987 16.316C16.8534 16.3907 16.8067 16.4587 16.7587 16.52C16.6307 16.4347 16.4747 16.3533 16.2907 16.276C16.1067 16.1987 15.9067 16.16 15.6907 16.16C15.5467 16.16 15.408 16.1773 15.2747 16.212C15.1414 16.244 15.032 16.2987 14.9467 16.376C14.8614 16.4533 14.8187 16.5587 14.8187 16.692C14.8187 16.8067 14.86 16.9093 14.9427 17C15.028 17.0907 15.1427 17.172 15.2867 17.244C15.4307 17.3133 15.5934 17.38 15.7747 17.444C15.9934 17.5187 16.196 17.6027 16.3827 17.696C16.5694 17.7867 16.7307 17.892 16.8667 18.012C17.0054 18.1293 17.1134 18.2653 17.1907 18.42C17.268 18.572 17.3067 18.744 17.3067 18.936C17.3067 19.2427 17.228 19.4987 17.0707 19.704C16.9134 19.9093 16.7027 20.064 16.4387 20.168C16.1747 20.272 15.8787 20.324 15.5507 20.324ZM19.5194 20.324C19.2714 20.324 19.0248 20.2893 18.7794 20.22C18.5341 20.1507 18.3101 20.0587 18.1074 19.944C17.9074 19.8267 17.7474 19.6973 17.6274 19.556C17.6461 19.5187 17.6728 19.468 17.7074 19.404C17.7421 19.34 17.7821 19.2733 17.8274 19.204C17.8728 19.132 17.9181 19.0667 17.9634 19.008C18.0088 18.9467 18.0488 18.9 18.0834 18.868C18.1981 18.996 18.3354 19.12 18.4954 19.24C18.6554 19.3573 18.8274 19.4533 19.0114 19.528C19.1954 19.6 19.3794 19.636 19.5634 19.636C19.7394 19.636 19.8981 19.6107 20.0394 19.56C20.1834 19.5067 20.2968 19.4307 20.3794 19.332C20.4648 19.2333 20.5074 19.1147 20.5074 18.976C20.5074 18.816 20.4568 18.6787 20.3554 18.564C20.2541 18.4467 20.1181 18.344 19.9474 18.256C19.7768 18.1653 19.5888 18.0827 19.3834 18.008C19.1354 17.9173 18.9088 17.8187 18.7034 17.712C18.5008 17.6027 18.3381 17.4667 18.2154 17.304C18.0954 17.1413 18.0354 16.9347 18.0354 16.684C18.0354 16.428 18.1074 16.2147 18.2514 16.044C18.3981 15.8733 18.5901 15.744 18.8274 15.656C19.0674 15.568 19.3261 15.524 19.6034 15.524C19.9128 15.524 20.1968 15.564 20.4554 15.644C20.7168 15.7213 20.9168 15.812 21.0554 15.916C21.0448 15.9613 21.0221 16.0213 20.9874 16.096C20.9528 16.168 20.9128 16.2413 20.8674 16.316C20.8221 16.3907 20.7754 16.4587 20.7274 16.52C20.5994 16.4347 20.4434 16.3533 20.2594 16.276C20.0754 16.1987 19.8754 16.16 19.6594 16.16C19.5154 16.16 19.3768 16.1773 19.2434 16.212C19.1101 16.244 19.0008 16.2987 18.9154 16.376C18.8301 16.4533 18.7874 16.5587 18.7874 16.692C18.7874 16.8067 18.8288 16.9093 18.9114 17C18.9968 17.0907 19.1114 17.172 19.2554 17.244C19.3994 17.3133 19.5621 17.38 19.7434 17.444C19.9621 17.5187 20.1648 17.6027 20.3514 17.696C20.5381 17.7867 20.6994 17.892 20.8354 18.012C20.9741 18.1293 21.0821 18.2653 21.1594 18.42C21.2368 18.572 21.2754 18.744 21.2754 18.936C21.2754 19.2427 21.1968 19.4987 21.0394 19.704C20.8821 19.9093 20.6714 20.064 20.4074 20.168C20.1434 20.272 19.8474 20.324 19.5194 20.324ZM24.6682 16C24.7082 15.9893 24.7655 15.98 24.8402 15.972C24.9175 15.964 24.9949 15.96 25.0722 15.96C25.1362 15.96 25.2055 15.9627 25.2802 15.968C25.3575 15.9707 25.4189 15.976 25.4642 15.984C25.5069 16.2427 25.5429 16.5067 25.5722 16.776C25.6015 17.0453 25.6162 17.3107 25.6162 17.572C25.6162 17.9293 25.5855 18.2667 25.5242 18.584C25.4629 18.9013 25.3615 19.1813 25.2202 19.424C25.0815 19.664 24.8935 19.8533 24.6562 19.992C24.4215 20.1307 24.1295 20.2 23.7802 20.2C23.3989 20.2 23.0855 20.1253 22.8402 19.976C22.5949 19.824 22.4042 19.6147 22.2682 19.348C22.1322 19.0787 22.0362 18.7693 21.9802 18.42C21.9269 18.0707 21.9002 17.6973 21.9002 17.3C21.9002 17.0573 21.9082 16.812 21.9242 16.564C21.9402 16.316 21.9575 16.0733 21.9762 15.836C22.0242 15.8333 22.0842 15.832 22.1562 15.832C22.2309 15.832 22.2975 15.8333 22.3562 15.836C22.4389 15.8413 22.5202 15.8493 22.6002 15.86C22.6829 15.868 22.7509 15.88 22.8042 15.896C22.7775 16.136 22.7562 16.3733 22.7402 16.608C22.7242 16.8427 22.7162 17.0693 22.7162 17.288C22.7162 17.7573 22.7549 18.1547 22.8322 18.48C22.9122 18.8053 23.0309 19.052 23.1882 19.22C23.3482 19.388 23.5482 19.472 23.7882 19.472C24.0122 19.472 24.1989 19.396 24.3482 19.244C24.5002 19.092 24.6149 18.872 24.6922 18.584C24.7695 18.2933 24.8082 17.94 24.8082 17.524C24.8082 17.2867 24.7962 17.0387 24.7722 16.78C24.7482 16.5187 24.7135 16.2587 24.6682 16ZM27.5191 20.052C27.4685 20.052 27.4071 20.052 27.3351 20.052C27.2631 20.0547 27.1911 20.0547 27.1191 20.052C27.0525 20.0493 26.9765 20.0453 26.8911 20.04C26.8058 20.0373 26.7431 20.0333 26.7031 20.028C26.7298 19.8067 26.7525 19.5653 26.7711 19.304C26.7925 19.04 26.8098 18.744 26.8231 18.416C26.8365 18.0853 26.8471 17.7107 26.8551 17.292C26.8631 16.8707 26.8671 16.392 26.8671 15.856C26.9311 15.8453 27.0071 15.8373 27.0951 15.832C27.1858 15.824 27.2778 15.82 27.3711 15.82C27.4298 15.82 27.4885 15.8213 27.5471 15.824C27.6085 15.8267 27.6618 15.832 27.7071 15.84C27.7098 15.8693 27.7111 15.9227 27.7111 16C27.7138 16.0773 27.7138 16.1627 27.7111 16.256C27.7111 16.3493 27.7111 16.432 27.7111 16.504C27.8098 16.3947 27.9498 16.2827 28.1311 16.168C28.3125 16.0533 28.5151 15.9573 28.7391 15.88C28.9631 15.8 29.1885 15.76 29.4151 15.76C29.8205 15.76 30.1285 15.8413 30.3391 16.004C30.5498 16.164 30.6925 16.4013 30.7671 16.716C30.8445 17.0307 30.8831 17.4213 30.8831 17.888C30.8831 18.0693 30.8778 18.2747 30.8671 18.504C30.8591 18.7333 30.8445 18.976 30.8231 19.232C30.8045 19.488 30.7791 19.748 30.7471 20.012C30.7098 20.0173 30.6525 20.0213 30.5751 20.024C30.5005 20.0293 30.4205 20.032 30.3351 20.032C30.2498 20.032 30.1685 20.0307 30.0911 20.028C30.0138 20.0253 29.9525 20.02 29.9071 20.012C29.9418 19.7853 29.9738 19.5493 30.0031 19.304C30.0325 19.056 30.0565 18.8107 30.0751 18.568C30.0938 18.3227 30.1031 18.092 30.1031 17.876C30.1031 17.5987 30.0818 17.356 30.0391 17.148C29.9991 16.94 29.9178 16.7787 29.7951 16.664C29.6751 16.5493 29.4978 16.492 29.2631 16.492C29.0205 16.492 28.7978 16.532 28.5951 16.612C28.3925 16.692 28.2151 16.7867 28.0631 16.896C27.9138 17.0053 27.7925 17.1027 27.6991 17.188C27.6885 17.6387 27.6725 18.052 27.6511 18.428C27.6298 18.804 27.6071 19.1307 27.5831 19.408C27.5591 19.6853 27.5378 19.9 27.5191 20.052Z" fill="white"/>
</g>
<defs>
<filter id="filter0_d_3250_16079" x="0.451172" y="14.7773" width="34.4316" height="13.5469" filterUnits="userSpaceOnUse" color-interpolation-filters="sRGB">
<feFlood flood-opacity="0" result="BackgroundImageFix"/>
<feColorMatrix in="SourceAlpha" type="matrix" values="0 0 0 0 0 0 0 0 0 0 0 0 0 0 0 0 0 0 127 0" result="hardAlpha"/>
<feOffset dy="4"/>
<feGaussianBlur stdDeviation="2"/>
<feComposite in2="hardAlpha" operator="out"/>
<feColorMatrix type="matrix" values="0 0 0 0 0 0 0 0 0 0 0 0 0 0 0 0 0 0 0.25 0"/>
<feBlend mode="normal" in2="BackgroundImageFix" result="effect1_dropShadow_3250_16079"/>
<feBlend mode="normal" in="SourceGraphic" in2="effect1_dropShadow_3250_16079" result="shape"/>
</filter>
</defs>
</svg>
