<svg width="12" height="10" viewBox="0 0 12 10" fill="none" xmlns="http://www.w3.org/2000/svg">
<path d="M11.969 1.46836C11.9149 1.193 11.7941 0.941018 11.6254 0.732852C11.5898 0.687496 11.5526 0.646876 11.5123 0.606257C11.2134 0.302665 10.7938 0.113281 10.3354 0.113281H1.66455C1.20619 0.113281 0.788109 0.302665 0.487758 0.606257C0.447563 0.646876 0.410391 0.687496 0.374719 0.732852C0.205898 0.940994 0.0850781 1.193 0.0324844 1.46836C0.010875 1.57463 0 1.68446 0 1.79549V7.94959C0 8.18568 0.0495469 8.41263 0.137906 8.61757C0.219867 8.81321 0.340711 8.99023 0.487734 9.13866C0.525 9.17623 0.562008 9.21076 0.602391 9.2451C0.890344 9.4861 1.26204 9.63164 1.66455 9.63164H10.3354C10.7381 9.63164 11.1114 9.48609 11.3977 9.24359C11.438 9.21076 11.4752 9.17623 11.5123 9.13866C11.6593 8.99023 11.7801 8.81321 11.8638 8.61757V8.61606C11.9521 8.41111 12 8.18568 12 7.94961V1.79549C12 1.68446 11.9893 1.57463 11.969 1.46836ZM1.09005 1.21484C1.23877 1.06472 1.43848 0.973845 1.66455 0.973845H10.3354C10.5615 0.973845 10.763 1.06472 10.9099 1.21484C10.9362 1.24158 10.961 1.27137 10.9829 1.30098L6.43819 5.30359C6.31284 5.41461 6.15802 5.46944 6 5.46944C5.84358 5.46944 5.68884 5.41461 5.56184 5.30359L1.01888 1.29927C1.03898 1.26967 1.06376 1.24158 1.09005 1.21484ZM0.851578 7.94959V2.1898L4.14042 5.08918L0.853242 7.98547C0.851578 7.97448 0.851578 7.96212 0.851578 7.94959ZM10.3354 8.77091H1.66455C1.51734 8.77091 1.3796 8.7318 1.26204 8.6631L4.73027 5.60873L5.05406 5.89337C5.32502 6.13131 5.66409 6.25182 6 6.25182C6.33764 6.25182 6.67669 6.13131 6.94763 5.89337L7.27125 5.60873L10.7381 8.6631C10.6204 8.7318 10.4827 8.77091 10.3354 8.77091ZM11.1484 7.94959C11.1484 7.96212 11.1484 7.97448 11.1468 7.98547L7.85967 5.09086L11.1484 2.19134V7.94959Z" fill="white"/>
</svg>
