<svg width="121" height="102" viewBox="0 0 121 102" fill="none" xmlns="http://www.w3.org/2000/svg">
<path d="M2.25195 32.5016C7.02266 26.7768 12.5288 21.5008 17.9036 16.3796C22.1413 12.3417 30.9266 1.75697 38.1737 1.626C43.7573 1.52509 50.7974 9.12195 54.5951 12.4881C68.9591 25.2198 76.9179 37.821 76.9179 57.0054C76.9179 60.8716 77.8075 66.0919 76.0626 69.7063C73.9678 74.0456 67.9589 73.2708 64.0032 73.2985C59.4955 73.33 55.147 73.1135 50.8319 74.6669C47.7388 75.7804 48.4371 78.5035 48.4371 81.2526C48.4371 86.2608 48.2177 92.221 51.9865 96.0917C56.628 100.859 67.7248 99.3448 73.5395 99.4273C84.8637 99.5879 107.299 103.368 112.925 89.8909C115.035 84.8383 115.294 79.4582 116.346 74.1537C117.312 69.2883 119.169 64.4656 119.169 59.4429C119.169 50.5346 112.326 42.8143 112.326 34.0411" stroke="black" stroke-width="3" stroke-linecap="round"/>
</svg>
